<svg width="432" height="100" viewBox="0 0 432 100" fill="none" xmlns="http://www.w3.org/2000/svg">
<path d="M19.5914 41.648C16.3034 41.648 13.4234 41.06 10.9514 39.884C8.50344 38.708 6.59544 37.064 5.22744 34.952C3.85944 32.816 3.17544 30.332 3.17544 27.5C3.17544 24.668 3.85944 22.196 5.22744 20.084C6.59544 17.948 8.50344 16.292 10.9514 15.116C13.4234 13.94 16.3034 13.352 19.5914 13.352C22.8794 13.352 25.7474 13.94 28.1954 15.116C30.6674 16.292 32.5874 17.948 33.9554 20.084C35.3234 22.196 36.0074 24.668 36.0074 27.5C36.0074 30.332 35.3234 32.816 33.9554 34.952C32.5874 37.064 30.6674 38.708 28.1954 39.884C25.7474 41.06 22.8794 41.648 19.5914 41.648ZM19.5914 33.368C21.0554 33.368 22.3154 33.14 23.3714 32.684C24.4274 32.204 25.2314 31.532 25.7834 30.668C26.3594 29.78 26.6474 28.724 26.6474 27.5C26.6474 26.276 26.3594 25.232 25.7834 24.368C25.2314 23.48 24.4274 22.808 23.3714 22.352C22.3154 21.872 21.0554 21.632 19.5914 21.632C18.1274 21.632 16.8674 21.872 15.8114 22.352C14.7554 22.808 13.9394 23.48 13.3634 24.368C12.8114 25.232 12.5354 26.276 12.5354 27.5C12.5354 28.724 12.8114 29.78 13.3634 30.668C13.9394 31.532 14.7554 32.204 15.8114 32.684C16.8674 33.14 18.1274 33.368 19.5914 33.368ZM52.5525 41.648C49.5285 41.648 46.9485 41.108 44.8125 40.028C42.6765 38.948 41.0445 37.4 39.9165 35.384C38.7885 33.344 38.2245 30.884 38.2245 28.004C38.2245 23.732 39.4365 20.36 41.8605 17.888C44.3085 15.416 47.8125 13.988 52.3725 13.604C54.2685 13.46 55.8285 13.328 57.0525 13.208C58.3005 13.088 59.3205 12.98 60.1125 12.884C60.9045 12.764 61.5765 12.644 62.1285 12.524C62.7045 12.38 63.2565 12.224 63.7845 12.056V19.4C63.1605 19.616 62.4405 19.796 61.6245 19.94C60.8085 20.084 59.8005 20.204 58.6005 20.3C57.4005 20.372 55.9005 20.444 54.1005 20.516C51.1245 20.612 48.9765 21.26 47.6565 22.46C46.3605 23.66 45.7125 25.448 45.7125 27.824V28.328L45.5325 27.608C45.8925 26.552 46.5405 25.628 47.4765 24.836C48.4365 24.044 49.5885 23.432 50.9325 23C52.3005 22.568 53.7645 22.352 55.3245 22.352C57.4125 22.352 59.2365 22.736 60.7965 23.504C62.3565 24.272 63.5685 25.352 64.4325 26.744C65.2965 28.136 65.7285 29.756 65.7285 31.604C65.7285 33.62 65.1765 35.384 64.0725 36.896C62.9925 38.408 61.4685 39.584 59.5005 40.424C57.5325 41.24 55.2165 41.648 52.5525 41.648ZM52.7685 34.988C53.5365 34.988 54.1965 34.856 54.7485 34.592C55.3245 34.328 55.7565 33.956 56.0445 33.476C56.3565 32.972 56.5125 32.396 56.5125 31.748C56.5125 31.076 56.3565 30.5 56.0445 30.02C55.7565 29.54 55.3245 29.168 54.7485 28.904C54.1965 28.64 53.5365 28.508 52.7685 28.508C51.6645 28.508 50.6445 28.784 49.7085 29.336C48.7725 29.888 48.0645 30.62 47.5845 31.532C47.8725 32.54 48.4965 33.368 49.4565 34.016C50.4405 34.664 51.5445 34.988 52.7685 34.988ZM68.3686 41V20.3H77.4406V38.84L74.8126 34.7H81.1126C81.7846 34.7 82.2886 34.544 82.6246 34.232C82.9846 33.92 83.1646 33.464 83.1646 32.864C83.1646 32.264 82.9846 31.808 82.6246 31.496C82.2886 31.184 81.7846 31.028 81.1126 31.028H74.6326V25.016H82.7326C84.6526 25.016 86.3326 25.352 87.7726 26.024C89.2126 26.672 90.3286 27.596 91.1206 28.796C91.9126 29.996 92.3086 31.4 92.3086 33.008C92.3086 34.616 91.9126 36.02 91.1206 37.22C90.3286 38.42 89.2246 39.356 87.8086 40.028C86.4166 40.676 84.7726 41 82.8766 41H68.3686ZM94.5977 24.908H104.75V32.036H94.5977V24.908ZM108.738 41V14H117.954V35.924L115.578 35.384L128.538 14H140.67V41H131.454V18.5L133.83 19.04L120.51 41H108.738ZM144.306 20.3H153.45V25.412L153.09 26.42V33.26L153.45 35.24V46.94H144.306V20.3ZM150.75 30.668C150.99 28.412 151.578 26.468 152.514 24.836C153.474 23.18 154.722 21.908 156.258 21.02C157.794 20.108 159.534 19.652 161.478 19.652C163.518 19.652 165.294 20.108 166.806 21.02C168.318 21.932 169.494 23.216 170.334 24.872C171.198 26.528 171.63 28.46 171.63 30.668C171.63 32.852 171.198 34.772 170.334 36.428C169.494 38.084 168.318 39.368 166.806 40.28C165.294 41.192 163.518 41.648 161.478 41.648C159.51 41.648 157.758 41.192 156.222 40.28C154.71 39.368 153.486 38.096 152.55 36.464C151.614 34.808 151.014 32.876 150.75 30.668ZM162.414 30.668C162.414 29.876 162.246 29.168 161.91 28.544C161.598 27.92 161.142 27.428 160.542 27.068C159.966 26.708 159.294 26.528 158.526 26.528C157.734 26.528 156.966 26.708 156.222 27.068C155.478 27.428 154.83 27.92 154.278 28.544C153.726 29.168 153.33 29.876 153.09 30.668C153.33 31.46 153.726 32.168 154.278 32.792C154.83 33.392 155.478 33.872 156.222 34.232C156.966 34.592 157.734 34.772 158.526 34.772C159.294 34.772 159.966 34.592 160.542 34.232C161.142 33.872 161.598 33.392 161.91 32.792C162.246 32.168 162.414 31.46 162.414 30.668ZM179.994 23.468H189.138V41H179.994V23.468ZM172.614 20.3H196.518V27.104H172.614V20.3ZM224.214 20.3H233.358V41H224.214V20.3ZM198.798 41V20.3H207.87V38.84L205.242 34.7H211.542C212.214 34.7 212.718 34.544 213.054 34.232C213.414 33.92 213.594 33.464 213.594 32.864C213.594 32.264 213.414 31.808 213.054 31.496C212.718 31.184 212.214 31.028 211.542 31.028H205.062V25.016H213.162C215.082 25.016 216.762 25.352 218.202 26.024C219.642 26.672 220.758 27.596 221.55 28.796C222.342 29.996 222.738 31.4 222.738 33.008C222.738 34.616 222.342 36.02 221.55 37.22C220.758 38.42 219.654 39.356 218.238 40.028C216.846 40.676 215.202 41 213.306 41H198.798ZM236.802 41V20.3H245.946V37.004L243.21 34.268H254.946L252.21 37.004V20.3H261.354V37.004L258.618 34.268H270.354L267.618 37.004V20.3H276.762V41H236.802ZM185.311 70.556V77H174.403L174.367 76.784C172.207 76.784 170.311 76.436 168.679 75.74C167.071 75.02 165.811 74 164.899 72.68C164.011 71.36 163.567 69.812 163.567 68.036C163.567 66.212 164.011 64.628 164.899 63.284C165.811 61.94 167.071 60.896 168.679 60.152C170.311 59.384 172.207 59 174.367 59H191.719V86H182.431V61.34L186.607 65.516H175.807C174.895 65.516 174.187 65.732 173.683 66.164C173.179 66.596 172.927 67.22 172.927 68.036C172.927 68.852 173.179 69.476 173.683 69.908C174.187 70.34 174.895 70.556 175.807 70.556H185.311ZM181.855 73.364L173.395 86H162.775L171.595 73.364H181.855ZM207.191 86.648C204.647 86.648 202.427 86.336 200.531 85.712C198.635 85.064 197.147 84.152 196.067 82.976C195.011 81.776 194.459 80.372 194.411 78.764H203.231C203.327 79.412 203.711 79.916 204.383 80.276C205.079 80.612 206.015 80.78 207.191 80.78C208.319 80.78 209.171 80.648 209.747 80.384C210.347 80.12 210.647 79.724 210.647 79.196C210.647 78.692 210.371 78.344 209.819 78.152C209.291 77.936 208.415 77.828 207.191 77.828H203.843V73.4H207.119C208.175 73.4 208.955 73.28 209.459 73.04C209.963 72.8 210.215 72.452 210.215 71.996C210.215 71.516 209.951 71.156 209.423 70.916C208.895 70.652 208.139 70.52 207.155 70.52C206.051 70.52 205.187 70.688 204.563 71.024C203.963 71.336 203.615 71.804 203.519 72.428H194.771C194.843 71.012 195.371 69.716 196.355 68.54C197.339 67.364 198.767 66.428 200.639 65.732C202.511 65.012 204.803 64.652 207.515 64.652C209.867 64.652 211.931 64.916 213.707 65.444C215.483 65.948 216.863 66.656 217.847 67.568C218.855 68.48 219.359 69.536 219.359 70.736C219.359 71.6 219.083 72.428 218.531 73.22C217.979 73.988 217.031 74.612 215.687 75.092C214.367 75.548 212.543 75.764 210.215 75.74V75.128C213.383 74.984 215.783 75.296 217.415 76.064C219.047 76.832 219.863 78.104 219.863 79.88C219.863 81.152 219.359 82.304 218.351 83.336C217.367 84.344 215.927 85.148 214.031 85.748C212.159 86.348 209.879 86.648 207.191 86.648ZM247.98 65.3H257.124V86H247.98V65.3ZM222.564 86V65.3H231.636V83.84L229.008 79.7H235.308C235.98 79.7 236.484 79.544 236.82 79.232C237.18 78.92 237.36 78.464 237.36 77.864C237.36 77.264 237.18 76.808 236.82 76.496C236.484 76.184 235.98 76.028 235.308 76.028H228.828V70.016H236.928C238.848 70.016 240.528 70.352 241.968 71.024C243.408 71.672 244.524 72.596 245.316 73.796C246.108 74.996 246.504 76.4 246.504 78.008C246.504 79.616 246.108 81.02 245.316 82.22C244.524 83.42 243.42 84.356 242.004 85.028C240.612 85.676 238.968 86 237.072 86H222.564ZM260.568 86V65.3H269.712V79.088L267.084 78.152L277.488 65.3H286.884L268.56 86H260.568ZM277.236 86L271.692 75.992L278.748 71.492L287.388 86H277.236Z" fill="#DAF1DE"/>
<path d="M347.542 26C352.077 26 356.159 27.959 359 31.0829C358.961 31.0827 358.922 31.0817 358.883 31.0817C347.284 31.0818 337.881 40.5619 337.881 52.256C337.881 52.8432 337.905 53.4249 337.952 54C334.328 51.1314 332 46.6741 332 41.6689C332 33.0153 338.958 26.0001 347.542 26Z" fill="#235347"/>
<path d="M416.458 26C411.923 26 407.841 27.9589 405 31.0829C405.039 31.0827 405.078 31.0817 405.117 31.0817C416.716 31.0818 426.119 40.5619 426.119 52.256C426.119 52.8433 426.095 53.4249 426.048 54C429.672 51.1314 432 46.6741 432 41.6689C432 33.0152 425.042 26 416.458 26Z" fill="#235347"/>
<path d="M399.086 28.4045C401.77 28.4045 403.022 31.5394 401.003 33.207L383.917 47.3203C382.82 48.2266 381.18 48.2266 380.083 47.3203L362.997 33.207C360.979 31.5394 362.23 28.4047 364.914 28.4045H399.086Z" fill="#051F20"/>
<path d="M386.488 4C388.776 4 390.631 5.74813 390.632 7.90458V20.2693H382.345V7.90458C382.345 5.74818 384.2 4.00009 386.488 4Z" fill="#051F20"/>
<path d="M380.082 57.2241L381.419 73.6756C381.476 74.3731 382.524 74.3731 382.581 73.6756L383.902 57.4193C383.946 57.3863 383.989 57.3524 384.03 57.3167L407.81 37H416.087C417.696 37.0001 419 38.2714 419 39.8396V60.9328C419 80.8522 402.434 97 382 97C361.565 96.9998 345 80.852 345 60.9328V39.8396C345 38.2714 346.304 37.0001 347.913 37H356.41L380.082 57.2241Z" fill="#8EB69B"/>
<path d="M371 18.1724C371 15.3158 373.526 13 376.641 13H387.359C390.474 13 393 15.3158 393 18.1724V28H371V18.1724Z" fill="#8EB69B"/>
</svg>
