<svg width="432" height="100" viewBox="0 0 432 100" fill="none" xmlns="http://www.w3.org/2000/svg">
<g clip-path="url(#clip0_56_326)">
<path d="M15.5421 26C20.0775 26 24.1588 27.959 27 31.0829C26.9612 31.0827 26.9222 31.0817 26.8834 31.0817C15.284 31.0818 5.88111 40.5619 5.88109 52.256C5.88109 52.8432 5.90509 53.4249 5.9516 54C2.32784 51.1314 0 46.6741 0 41.6689C2.16556e-05 33.0153 6.9585 26.0001 15.5421 26Z" fill="#235347"/>
<path d="M84.4579 26C79.9225 26 75.8412 27.9589 73 31.0829C73.0388 31.0827 73.0777 31.0817 73.1166 31.0817C84.7161 31.0818 94.1195 40.5619 94.1195 52.256C94.1195 52.8433 94.0949 53.4249 94.0484 54C97.6722 51.1314 100 46.6741 100 41.6689C100 33.0152 93.0416 26 84.4579 26Z" fill="#235347"/>
<path d="M67.0856 28.4045C69.77 28.4045 71.0215 31.5394 69.0028 33.207L51.917 47.3203C50.8198 48.2266 49.1803 48.2266 48.0831 47.3203L30.9973 33.207C28.9786 31.5394 30.2297 28.4047 32.914 28.4045H67.0856Z" fill="#051F20"/>
<path d="M54.4881 4C56.7762 4 58.6315 5.74813 58.6316 7.90458V20.2693H50.3452V7.90458C50.3452 5.74818 52.2001 4.00009 54.4881 4Z" fill="#051F20"/>
<path d="M48.0818 57.2241L49.4194 73.6756C49.4761 74.3731 50.5245 74.3731 50.5812 73.6756L51.9023 57.4193C51.9456 57.3863 51.9885 57.3524 52.0303 57.3167L75.8098 37H84.0869C85.6957 37.0001 87 38.2714 87 39.8396V60.9328C86.9999 80.8522 70.4341 97 49.9997 97C29.5655 96.9998 13.0001 80.852 13 60.9328V39.8396C13 38.2714 14.3043 37.0001 15.913 37H24.4104L48.0818 57.2241Z" fill="#8EB69B"/>
<path d="M39 18.1724C39 15.3158 41.5256 13 44.641 13H55.359C58.4744 13 61 15.3158 61 18.1724V28H39V18.1724Z" fill="#8EB69B"/>
<path d="M162.568 41.648C159.28 41.648 156.4 41.06 153.928 39.884C151.48 38.708 149.572 37.064 148.204 34.952C146.836 32.816 146.152 30.332 146.152 27.5C146.152 24.668 146.836 22.196 148.204 20.084C149.572 17.948 151.48 16.292 153.928 15.116C156.4 13.94 159.28 13.352 162.568 13.352C165.856 13.352 168.724 13.94 171.172 15.116C173.644 16.292 175.564 17.948 176.932 20.084C178.3 22.196 178.984 24.668 178.984 27.5C178.984 30.332 178.3 32.816 176.932 34.952C175.564 37.064 173.644 38.708 171.172 39.884C168.724 41.06 165.856 41.648 162.568 41.648ZM162.568 33.368C164.032 33.368 165.292 33.14 166.348 32.684C167.404 32.204 168.208 31.532 168.76 30.668C169.336 29.78 169.624 28.724 169.624 27.5C169.624 26.276 169.336 25.232 168.76 24.368C168.208 23.48 167.404 22.808 166.348 22.352C165.292 21.872 164.032 21.632 162.568 21.632C161.104 21.632 159.844 21.872 158.788 22.352C157.732 22.808 156.916 23.48 156.34 24.368C155.788 25.232 155.512 26.276 155.512 27.5C155.512 28.724 155.788 29.78 156.34 30.668C156.916 31.532 157.732 32.204 158.788 32.684C159.844 33.14 161.104 33.368 162.568 33.368ZM195.529 41.648C192.505 41.648 189.925 41.108 187.789 40.028C185.653 38.948 184.021 37.4 182.893 35.384C181.765 33.344 181.201 30.884 181.201 28.004C181.201 23.732 182.413 20.36 184.837 17.888C187.285 15.416 190.789 13.988 195.349 13.604C197.245 13.46 198.805 13.328 200.029 13.208C201.277 13.088 202.297 12.98 203.089 12.884C203.881 12.764 204.553 12.644 205.105 12.524C205.681 12.38 206.233 12.224 206.761 12.056V19.4C206.137 19.616 205.417 19.796 204.601 19.94C203.785 20.084 202.777 20.204 201.577 20.3C200.377 20.372 198.877 20.444 197.077 20.516C194.101 20.612 191.953 21.26 190.633 22.46C189.337 23.66 188.689 25.448 188.689 27.824V28.328L188.509 27.608C188.869 26.552 189.517 25.628 190.453 24.836C191.413 24.044 192.565 23.432 193.909 23C195.277 22.568 196.741 22.352 198.301 22.352C200.389 22.352 202.213 22.736 203.773 23.504C205.333 24.272 206.545 25.352 207.409 26.744C208.273 28.136 208.705 29.756 208.705 31.604C208.705 33.62 208.153 35.384 207.049 36.896C205.969 38.408 204.445 39.584 202.477 40.424C200.509 41.24 198.193 41.648 195.529 41.648ZM195.745 34.988C196.513 34.988 197.173 34.856 197.725 34.592C198.301 34.328 198.733 33.956 199.021 33.476C199.333 32.972 199.489 32.396 199.489 31.748C199.489 31.076 199.333 30.5 199.021 30.02C198.733 29.54 198.301 29.168 197.725 28.904C197.173 28.64 196.513 28.508 195.745 28.508C194.641 28.508 193.621 28.784 192.685 29.336C191.749 29.888 191.041 30.62 190.561 31.532C190.849 32.54 191.473 33.368 192.433 34.016C193.417 34.664 194.521 34.988 195.745 34.988ZM211.345 41V20.3H220.417V38.84L217.789 34.7H224.089C224.761 34.7 225.265 34.544 225.601 34.232C225.961 33.92 226.141 33.464 226.141 32.864C226.141 32.264 225.961 31.808 225.601 31.496C225.265 31.184 224.761 31.028 224.089 31.028H217.609V25.016H225.709C227.629 25.016 229.309 25.352 230.749 26.024C232.189 26.672 233.305 27.596 234.097 28.796C234.889 29.996 235.285 31.4 235.285 33.008C235.285 34.616 234.889 36.02 234.097 37.22C233.305 38.42 232.201 39.356 230.785 40.028C229.393 40.676 227.749 41 225.853 41H211.345ZM237.574 24.908H247.726V32.036H237.574V24.908ZM251.715 41V14H260.931V35.924L258.555 35.384L271.515 14H283.647V41H274.431V18.5L276.807 19.04L263.487 41H251.715ZM287.283 20.3H296.427V25.412L296.067 26.42V33.26L296.427 35.24V46.94H287.283V20.3ZM293.727 30.668C293.967 28.412 294.555 26.468 295.491 24.836C296.451 23.18 297.699 21.908 299.235 21.02C300.771 20.108 302.511 19.652 304.455 19.652C306.495 19.652 308.271 20.108 309.783 21.02C311.295 21.932 312.471 23.216 313.311 24.872C314.175 26.528 314.607 28.46 314.607 30.668C314.607 32.852 314.175 34.772 313.311 36.428C312.471 38.084 311.295 39.368 309.783 40.28C308.271 41.192 306.495 41.648 304.455 41.648C302.487 41.648 300.735 41.192 299.199 40.28C297.687 39.368 296.463 38.096 295.527 36.464C294.591 34.808 293.991 32.876 293.727 30.668ZM305.391 30.668C305.391 29.876 305.223 29.168 304.887 28.544C304.575 27.92 304.119 27.428 303.519 27.068C302.943 26.708 302.271 26.528 301.503 26.528C300.711 26.528 299.943 26.708 299.199 27.068C298.455 27.428 297.807 27.92 297.255 28.544C296.703 29.168 296.307 29.876 296.067 30.668C296.307 31.46 296.703 32.168 297.255 32.792C297.807 33.392 298.455 33.872 299.199 34.232C299.943 34.592 300.711 34.772 301.503 34.772C302.271 34.772 302.943 34.592 303.519 34.232C304.119 33.872 304.575 33.392 304.887 32.792C305.223 32.168 305.391 31.46 305.391 30.668ZM322.971 23.468H332.115V41H322.971V23.468ZM315.591 20.3H339.495V27.104H315.591V20.3ZM367.191 20.3H376.335V41H367.191V20.3ZM341.775 41V20.3H350.847V38.84L348.219 34.7H354.519C355.191 34.7 355.695 34.544 356.031 34.232C356.391 33.92 356.571 33.464 356.571 32.864C356.571 32.264 356.391 31.808 356.031 31.496C355.695 31.184 355.191 31.028 354.519 31.028H348.039V25.016H356.139C358.059 25.016 359.739 25.352 361.179 26.024C362.619 26.672 363.735 27.596 364.527 28.796C365.319 29.996 365.715 31.4 365.715 33.008C365.715 34.616 365.319 36.02 364.527 37.22C363.735 38.42 362.631 39.356 361.215 40.028C359.823 40.676 358.179 41 356.283 41H341.775ZM379.779 41V20.3H388.923V37.004L386.187 34.268H397.923L395.187 37.004V20.3H404.331V37.004L401.595 34.268H413.331L410.595 37.004V20.3H419.739V41H379.779ZM168.256 70.556V77H157.348L157.312 76.784C155.152 76.784 153.256 76.436 151.624 75.74C150.016 75.02 148.756 74 147.844 72.68C146.956 71.36 146.512 69.812 146.512 68.036C146.512 66.212 146.956 64.628 147.844 63.284C148.756 61.94 150.016 60.896 151.624 60.152C153.256 59.384 155.152 59 157.312 59H174.664V86H165.376V61.34L169.552 65.516H158.752C157.84 65.516 157.132 65.732 156.628 66.164C156.124 66.596 155.872 67.22 155.872 68.036C155.872 68.852 156.124 69.476 156.628 69.908C157.132 70.34 157.84 70.556 158.752 70.556H168.256ZM164.8 73.364L156.34 86H145.72L154.54 73.364H164.8ZM190.136 86.648C187.592 86.648 185.372 86.336 183.476 85.712C181.58 85.064 180.092 84.152 179.012 82.976C177.956 81.776 177.404 80.372 177.356 78.764H186.176C186.272 79.412 186.656 79.916 187.328 80.276C188.024 80.612 188.96 80.78 190.136 80.78C191.264 80.78 192.116 80.648 192.692 80.384C193.292 80.12 193.592 79.724 193.592 79.196C193.592 78.692 193.316 78.344 192.764 78.152C192.236 77.936 191.36 77.828 190.136 77.828H186.788V73.4H190.064C191.12 73.4 191.9 73.28 192.404 73.04C192.908 72.8 193.16 72.452 193.16 71.996C193.16 71.516 192.896 71.156 192.368 70.916C191.84 70.652 191.084 70.52 190.1 70.52C188.996 70.52 188.132 70.688 187.508 71.024C186.908 71.336 186.56 71.804 186.464 72.428H177.716C177.788 71.012 178.316 69.716 179.3 68.54C180.284 67.364 181.712 66.428 183.584 65.732C185.456 65.012 187.748 64.652 190.46 64.652C192.812 64.652 194.876 64.916 196.652 65.444C198.428 65.948 199.808 66.656 200.792 67.568C201.8 68.48 202.304 69.536 202.304 70.736C202.304 71.6 202.028 72.428 201.476 73.22C200.924 73.988 199.976 74.612 198.632 75.092C197.312 75.548 195.488 75.764 193.16 75.74V75.128C196.328 74.984 198.728 75.296 200.36 76.064C201.992 76.832 202.808 78.104 202.808 79.88C202.808 81.152 202.304 82.304 201.296 83.336C200.312 84.344 198.872 85.148 196.976 85.748C195.104 86.348 192.824 86.648 190.136 86.648ZM230.925 65.3H240.069V86H230.925V65.3ZM205.509 86V65.3H214.581V83.84L211.953 79.7H218.253C218.925 79.7 219.429 79.544 219.765 79.232C220.125 78.92 220.305 78.464 220.305 77.864C220.305 77.264 220.125 76.808 219.765 76.496C219.429 76.184 218.925 76.028 218.253 76.028H211.773V70.016H219.873C221.793 70.016 223.473 70.352 224.913 71.024C226.353 71.672 227.469 72.596 228.261 73.796C229.053 74.996 229.449 76.4 229.449 78.008C229.449 79.616 229.053 81.02 228.261 82.22C227.469 83.42 226.365 84.356 224.949 85.028C223.557 85.676 221.913 86 220.017 86H205.509ZM243.513 86V65.3H252.657V79.088L250.029 78.152L260.433 65.3H269.829L251.505 86H243.513ZM260.181 86L254.637 75.992L261.693 71.492L270.333 86H260.181Z" fill="#DAF1DE"/>
</g>
<defs>
<clipPath id="clip0_56_326">
<rect width="432" height="100" fill="white"/>
</clipPath>
</defs>
</svg>
